<?xml version="1.0" standalone="no"?>
<!DOCTYPE svg PUBLIC "-//W3C//DTD SVG 20010904//EN"
 "http://www.w3.org/TR/2001/REC-SVG-20010904/DTD/svg10.dtd">
<svg version="1.0" xmlns="http://www.w3.org/2000/svg"
 width="9757.000000pt" height="9061.000000pt" viewBox="0 0 9757.000000 9061.000000"
 preserveAspectRatio="xMidYMid meet">

<g transform="translate(0.000000,9061.000000) scale(0.100000,-0.100000)"
fill="#000000" stroke="none">
<path d="M0 45305 l0 -45305 48785 0 48785 0 0 45305 0 45305 -48785 0 -48785
0 0 -45305z m68020 0 l0 -24685 -3290 0 -3290 0 0 653 0 653 73 -71 c150 -148
364 -225 622 -225 297 0 579 112 793 314 276 261 413 628 413 1106 0 375 -81
660 -261 913 -216 302 -557 467 -915 443 -337 -23 -569 -135 -765 -368 l-48
-56 -6 46 c-3 26 -10 99 -16 162 -6 63 -13 125 -16 138 l-4 22 -361 0 -360 0
5 -112 c3 -62 8 -902 12 -1866 l6 -1752 -1201 0 -1201 0 0 649 0 648 68 -66
c130 -129 333 -207 564 -218 550 -27 1010 307 1187 862 88 273 104 655 41 946
-104 481 -407 827 -820 937 -81 21 -117 25 -250 25 -171 1 -238 -9 -382 -54
-170 -54 -333 -163 -445 -300 l-58 -70 -17 163 c-9 90 -17 173 -17 186 l-1 22
-366 0 -366 0 7 -52 c3 -29 8 -869 11 -1866 l5 -1812 -13910 0 -13911 0 0
24685 0 24685 19235 0 19235 0 0 -24685z m-9177 -21570 c189 -49 324 -202 389
-440 19 -70 22 -106 22 -280 0 -229 -13 -294 -83 -439 -88 -180 -238 -287
-424 -302 -241 -21 -465 146 -522 387 -22 94 -21 572 1 672 55 243 255 416
484 417 42 0 102 -7 133 -15z m3227 4 c112 -26 229 -110 298 -215 158 -238
174 -671 36 -952 -50 -103 -145 -202 -238 -247 -284 -140 -607 7 -703 320 -16
52 -18 97 -18 350 0 320 5 356 67 479 59 118 192 227 317 262 57 15 181 17
241 3z"/>
<path d="M48410 58224 c-555 -30 -865 -62 -1293 -134 -2988 -502 -5609 -2376
-7080 -5062 -1127 -2056 -1483 -4456 -1006 -6785 259 -1270 802 -2545 1532
-3600 372 -537 688 -916 1207 -1448 424 -434 728 -789 1067 -1245 707 -950
1255 -1999 1629 -3115 114 -341 113 -337 565 -2010 220 -814 406 -1504 415
-1532 l15 -53 3267 0 3267 0 374 1388 c206 763 401 1479 433 1592 430 1504
1201 2936 2243 4165 203 240 369 419 700 755 332 338 494 513 699 760 1772
2126 2572 4883 2221 7646 -366 2876 -1981 5456 -4420 7056 -934 613 -1962
1063 -3040 1332 -575 143 -1139 231 -1770 276 -148 11 -899 21 -1025 14z m172
-2475 c77 -16 189 -72 259 -130 183 -153 305 -449 364 -884 9 -66 26 -148 36
-182 42 -130 147 -248 283 -319 263 -137 366 -289 366 -539 0 -322 -213 -572
-570 -671 -85 -24 -329 -25 -407 -2 -52 15 -52 15 -95 -14 -73 -49 -137 -78
-216 -99 -165 -42 -327 -13 -475 85 l-57 38 -105 -13 c-121 -14 -277 -7 -375
16 -294 71 -543 351 -558 630 -9 174 35 282 168 416 63 64 108 99 174 135 147
81 245 185 297 316 11 29 30 104 40 166 26 148 94 449 120 526 25 75 79 182
121 245 143 208 408 326 630 280z m5115 -2044 c229 -37 413 -125 605 -289 237
-202 388 -474 428 -773 16 -114 8 -349 -14 -451 -70 -319 -268 -657 -565 -965
-91 -95 -626 -535 -761 -627 -160 -109 -335 -173 -470 -174 -192 -2 -367 113
-458 299 -51 103 -66 183 -67 343 l0 144 29 25 c33 28 70 25 99 -9 14 -17 17
-41 17 -143 0 -250 73 -402 227 -476 115 -55 226 -49 379 21 124 56 209 118
664 491 304 248 508 496 645 781 101 211 136 353 137 553 1 327 -109 585 -344
811 -192 184 -395 278 -653 303 -297 27 -564 -63 -741 -250 -175 -187 -296
-492 -339 -857 -9 -75 -21 -147 -26 -160 -19 -48 -92 -48 -123 0 -13 19 -13
40 -5 127 24 261 97 522 200 721 168 325 421 509 779 563 65 10 274 5 357 -8z
m-8549 -567 c81 -194 106 -333 106 -578 -1 -203 -13 -301 -65 -507 l-30 -122
54 -78 c71 -101 121 -200 149 -299 32 -112 32 -324 1 -436 -60 -207 -176 -369
-347 -483 -310 -206 -708 -188 -1001 45 -69 55 -113 105 -196 224 l-56 79
-154 2 c-283 4 -490 70 -724 229 -99 67 -275 234 -275 260 0 26 103 247 172
371 128 230 347 532 442 610 90 73 218 122 366 140 67 8 107 37 131 93 68 164
170 257 349 323 277 101 738 194 976 198 l71 1 31 -72z m8600 36 c314 -64 511
-341 515 -724 2 -137 -19 -239 -69 -349 -66 -144 -149 -224 -208 -202 -53 21
-61 83 -16 126 47 45 86 112 117 200 25 73 27 92 26 215 -1 213 -50 357 -158
465 -95 94 -205 135 -363 135 -110 0 -193 -19 -277 -63 l-59 -32 75 -7 c104
-9 178 -40 244 -99 62 -57 109 -143 125 -228 12 -67 13 -183 0 -236 -15 -68
-73 -95 -120 -57 -20 17 -22 26 -23 157 -2 134 -3 142 -30 191 -49 88 -120
124 -241 124 -83 0 -154 -21 -186 -55 -34 -36 -71 -150 -77 -237 l-6 -78 57
-114 c73 -146 95 -245 78 -347 -15 -87 -48 -161 -101 -224 -86 -103 -112 -205
-72 -283 24 -47 46 -62 91 -62 44 0 86 24 152 86 31 30 63 54 72 54 30 0 65
-23 76 -50 16 -38 -4 -73 -72 -135 -128 -115 -258 -134 -374 -54 -31 21 -52
47 -76 96 -28 58 -33 77 -33 143 0 98 29 174 102 270 31 41 65 96 75 122 35
92 18 194 -52 323 -47 86 -70 162 -70 229 0 82 37 213 90 324 79 161 210 287
359 343 129 48 292 61 429 33z m2909 -3424 c99 -44 165 -142 167 -251 l1 -55
37 6 c162 30 321 -106 322 -275 0 -48 -15 -109 -78 -305 -44 -135 -85 -263
-91 -286 l-13 -40 53 4 c106 9 210 -51 263 -152 21 -41 26 -64 26 -121 0 -62
-16 -119 -143 -515 -79 -245 -160 -482 -182 -528 -157 -338 -486 -588 -859
-652 -95 -17 -283 -17 -380 0 -159 27 -347 104 -480 198 -94 66 -227 204 -294
305 -170 256 -234 583 -172 873 24 111 415 1334 442 1380 42 75 125 128 217
140 60 8 144 -17 202 -62 26 -19 48 -34 50 -32 1 2 17 48 35 103 29 87 40 106
84 150 105 106 254 115 374 24 l50 -38 24 35 c35 52 109 100 183 118 36 9 114
-3 162 -24z m-14120 -1046 c257 -34 500 -123 708 -258 105 -69 247 -188 313
-265 l54 -62 -17 -72 c-56 -228 -201 -560 -332 -757 -178 -268 -397 -471 -647
-597 -93 -47 -280 -108 -396 -130 -145 -27 -466 -24 -620 5 -430 81 -797 279
-1127 609 -50 50 -83 91 -83 103 0 34 67 206 132 337 64 130 181 316 267 423
76 96 225 243 316 315 383 299 890 423 1432 349z m7258 -502 c73 -37 181 -130
238 -204 98 -129 157 -273 193 -473 21 -121 24 -476 6 -680 -65 -698 -164
-1192 -350 -1735 -51 -151 -96 -286 -98 -300 -6 -31 106 -257 190 -383 202
-303 442 -470 735 -509 167 -22 363 19 570 118 105 50 272 152 286 174 3 5 -6
38 -19 75 -40 104 -102 329 -130 470 -132 657 -110 1269 65 1835 156 507 287
723 539 889 50 33 130 74 178 92 80 30 97 33 207 33 117 1 122 0 190 -33 51
-25 93 -58 156 -121 73 -72 94 -101 132 -180 96 -200 110 -350 87 -925 -24
-588 -80 -992 -191 -1373 -93 -319 -234 -612 -397 -827 l-45 -59 33 -61 c104
-191 277 -421 436 -579 91 -91 331 -293 339 -285 1 2 116 345 254 762 138 416
259 774 270 796 25 48 78 95 126 111 53 17 151 9 207 -18 62 -31 119 -87 148
-148 46 -94 41 -120 -133 -679 -945 -3043 -2001 -6122 -3142 -9163 -35 -92
-95 -161 -167 -192 -44 -19 -65 -22 -133 -18 -98 5 -156 29 -224 93 -67 62
-96 129 -95 220 1 64 10 95 108 355 588 1558 1375 3753 2023 5640 113 329 563
1652 563 1655 0 0 -21 2 -47 2 -113 2 -178 39 -362 207 -213 193 -420 437
-589 692 -48 73 -92 140 -97 149 -10 16 -19 13 -96 -33 -197 -119 -417 -207
-631 -254 -89 -19 -133 -22 -323 -23 -173 0 -237 4 -302 18 -187 40 -347 108
-507 214 -128 85 -344 298 -436 431 -36 52 -70 101 -76 110 -10 13 -18 3 -52
-63 -200 -397 -536 -818 -827 -1038 -110 -82 -300 -178 -415 -209 -73 -20
-108 -23 -245 -22 -140 1 -172 4 -255 27 -237 64 -430 178 -643 377 -194 182
-462 540 -627 836 l-44 81 -68 -125 c-270 -495 -620 -979 -990 -1368 l-87 -92
90 -348 c539 -2102 1023 -4154 1550 -6574 124 -570 130 -619 90 -703 -89 -183
-359 -234 -515 -97 -64 56 -80 103 -156 461 -439 2060 -889 4027 -1415 6199
-162 666 -620 2506 -765 3070 -89 348 -101 403 -98 462 4 81 38 137 109 180
137 85 334 38 410 -97 28 -52 131 -418 395 -1405 75 -277 136 -506 137 -507 4
-3 160 196 252 322 266 364 531 830 692 1215 l61 145 -43 170 c-229 901 -160
1835 200 2707 87 210 146 255 321 246 73 -4 94 -10 171 -48 225 -110 356 -339
394 -687 15 -140 6 -456 -21 -713 -61 -579 -173 -1083 -356 -1592 l-38 -107
33 -88 c133 -356 441 -852 680 -1096 306 -313 592 -348 892 -109 205 163 385
423 634 917 61 121 131 266 155 323 l43 102 -46 153 c-86 285 -139 528 -180
821 -29 218 -32 759 -4 956 67 466 214 876 438 1214 99 151 157 204 259 237
43 14 152 4 195 -19z"/>
<path d="M48348 55591 c-167 -55 -296 -190 -366 -383 -30 -83 -97 -370 -127
-543 -26 -150 -61 -239 -140 -350 -69 -97 -134 -150 -299 -246 -78 -45 -168
-136 -201 -202 -57 -117 -51 -235 16 -376 77 -158 234 -278 414 -316 64 -13
295 -21 295 -10 0 2 -14 24 -31 49 l-31 44 -83 4 c-68 4 -95 10 -148 36 -137
68 -183 186 -101 263 21 20 36 24 88 24 119 0 262 -99 374 -258 146 -209 293
-295 486 -285 75 4 95 9 168 46 99 48 183 125 256 235 59 86 168 191 242 231
104 57 214 42 252 -35 24 -48 10 -95 -46 -153 -66 -68 -115 -89 -218 -94 l-88
-4 -36 -51 c-28 -39 -33 -52 -22 -59 22 -16 246 -2 313 20 199 63 336 178 396
330 20 49 23 76 24 187 0 122 -2 133 -28 187 -37 76 -121 151 -234 211 -160
86 -268 190 -337 328 -38 76 -58 156 -81 323 -20 146 -83 399 -125 496 -66
158 -166 272 -287 332 -56 27 -78 32 -152 35 -64 2 -101 -2 -143 -16z"/>
<path d="M44850 53055 c-8 -2 -76 -13 -150 -25 -248 -41 -585 -136 -685 -194
-62 -37 -142 -128 -162 -188 -21 -60 -81 -132 -133 -158 -21 -11 -80 -26 -131
-33 -214 -32 -290 -89 -487 -364 -130 -181 -319 -513 -293 -513 29 0 206 72
335 137 542 271 1460 939 1722 1254 33 38 61 74 62 79 3 9 -44 12 -78 5z"/>
<path d="M45000 52837 c-52 -96 -159 -266 -214 -342 -6 -9 34 -74 130 -213
l139 -201 12 52 c36 156 47 248 47 427 0 139 -4 207 -17 273 -28 140 -24 139
-97 4z"/>
<path d="M44549 52406 c-107 -40 -219 -109 -289 -177 -56 -56 -120 -148 -120
-173 0 -9 142 -219 315 -468 186 -268 315 -462 315 -476 0 -13 -11 -34 -26
-48 -19 -20 -31 -24 -52 -19 -15 3 -32 12 -38 18 -7 7 -150 212 -320 457 -169
245 -311 449 -315 453 -13 15 -118 -14 -201 -55 -97 -49 -193 -139 -262 -245
-25 -39 -46 -75 -46 -78 0 -4 111 -166 246 -361 283 -407 326 -454 476 -528
109 -54 199 -76 319 -76 256 0 499 145 618 369 52 100 72 176 78 301 7 136
-15 242 -70 350 -28 55 -497 742 -531 777 -8 9 -31 4 -97 -21z"/>
<path d="M43110 51490 c-118 -22 -230 -43 -249 -47 l-34 -8 50 -43 c130 -109
301 -195 472 -238 94 -24 311 -45 311 -29 0 4 -62 97 -137 206 -128 185 -140
198 -168 198 -16 0 -127 -18 -245 -39z"/>
<path d="M56494 49639 c-42 -12 -88 -66 -107 -126 -9 -26 -95 -298 -192 -603
-97 -305 -183 -565 -191 -577 -29 -46 -114 -19 -114 36 0 8 75 249 166 535
176 552 177 560 136 616 -31 42 -81 70 -124 70 -50 0 -103 -25 -127 -59 -10
-14 -93 -262 -185 -551 -92 -289 -172 -537 -177 -552 -22 -54 -92 -58 -120 -6
-13 24 -15 16 123 453 48 154 88 298 88 319 0 87 -63 150 -150 150 -51 0 -106
-28 -128 -65 -28 -45 -423 -1304 -437 -1394 -19 -114 -19 -206 0 -321 76 -468
452 -819 923 -863 426 -39 844 200 1024 585 33 71 318 957 318 989 0 11 -9 39
-19 62 -22 47 -79 83 -131 83 -43 0 -102 -32 -122 -67 -9 -15 -61 -170 -117
-343 -64 -201 -107 -319 -118 -328 -12 -9 -32 -12 -58 -8 -167 23 -240 27
-333 17 -176 -19 -282 -62 -379 -154 -57 -54 -90 -62 -123 -32 -36 33 -26 71
34 128 107 104 244 164 426 187 84 11 149 10 328 -3 23 -2 33 28 234 653 135
422 210 671 211 700 2 86 -61 150 -149 150 -54 0 -103 -24 -129 -63 -8 -13
-89 -255 -179 -538 -165 -515 -178 -549 -221 -549 -22 0 -65 41 -65 62 0 12
86 290 191 619 104 329 192 613 195 631 7 43 -31 117 -71 140 -40 22 -92 29
-131 17z"/>
<path d="M42428 48540 c263 -138 441 -405 472 -707 25 -238 -56 -493 -217
-681 -107 -125 -289 -238 -458 -283 -117 -32 -327 -32 -445 -1 -338 90 -595
357 -665 694 -8 38 -15 122 -15 187 0 178 44 335 134 476 21 31 36 59 34 61
-2 2 -49 -35 -105 -82 -240 -200 -445 -487 -579 -811 l-36 -88 73 -69 c418
-392 916 -584 1421 -545 536 40 946 345 1231 915 58 116 134 308 162 412 l18
63 -34 35 c-55 57 -178 158 -254 206 -214 138 -475 224 -759 251 l-49 5 71
-38z"/>
<path d="M41815 48481 c-140 -38 -237 -92 -338 -190 -219 -210 -290 -514 -188
-802 40 -112 86 -183 176 -274 162 -161 344 -232 570 -222 336 15 610 237 701
568 27 97 25 281 -4 383 -39 136 -94 229 -197 331 -103 102 -167 144 -292 188
-79 27 -103 31 -223 34 -108 2 -149 -1 -205 -16z m360 -366 c160 -77 257 -260
228 -432 -24 -135 -105 -243 -230 -305 -64 -31 -74 -33 -173 -33 -99 0 -109 2
-173 33 -81 40 -153 111 -190 186 -38 77 -36 82 23 78 65 -5 137 20 190 65
110 95 122 267 25 381 -15 18 -26 34 -24 36 20 17 80 25 164 23 86 -3 108 -7
160 -32z"/>
<path d="M49607 47230 c-73 -196 -113 -365 -139 -585 -14 -121 -15 -544 -1
-660 l8 -70 23 105 c37 169 79 431 102 635 11 105 25 219 31 255 10 69 25 420
17 420 -2 0 -21 -45 -41 -100z"/>
<path d="M52293 46872 c-48 -70 -127 -242 -168 -367 -144 -432 -182 -806 -129
-1280 14 -133 51 -350 63 -372 19 -36 139 353 196 631 67 335 95 644 95 1062
0 268 -5 374 -19 374 -3 0 -20 -21 -38 -48z"/>
<path d="M44862 25333 c2 -10 197 -834 433 -1830 l429 -1813 457 0 457 0 5 23
c4 12 98 436 211 942 205 922 248 1129 309 1520 33 209 34 210 41 145 39 -368
94 -684 301 -1731 96 -487 175 -889 175 -893 0 -3 204 -6 453 -6 l452 0 414
1608 c228 884 440 1707 472 1830 l57 222 -426 -2 -426 -3 -152 -770 c-155
-782 -270 -1409 -324 -1770 -32 -208 -38 -238 -39 -193 -2 48 -72 518 -121
813 -40 234 -335 1818 -355 1903 l-5 22 -443 0 -442 0 -109 -523 c-60 -287
-140 -668 -177 -847 -94 -452 -173 -860 -223 -1159 l-43 -253 -17 108 c-113
709 -170 1036 -384 2194 l-87 475 -449 3 c-424 2 -448 1 -444 -15z"/>
<path d="M49982 23567 c-62 -980 -116 -1803 -119 -1829 l-6 -48 389 0 390 0
37 778 c36 741 67 1464 83 1915 l7 208 47 -233 c115 -559 205 -919 473 -1878
l202 -725 327 -3 327 -2 45 142 c515 1639 609 1945 721 2363 36 138 72 270 80
295 11 40 13 8 14 -270 1 -173 6 -452 11 -620 15 -494 71 -1923 76 -1947 l4
-23 406 0 405 0 -6 68 c-3 37 -46 832 -95 1767 -50 935 -93 1728 -96 1763 l-6
62 -542 0 -543 0 -206 -647 c-264 -831 -326 -1046 -472 -1646 -32 -130 -60
-236 -62 -234 -1 2 -16 68 -32 148 -49 238 -88 409 -166 719 -71 287 -116 446
-356 1267 l-114 393 -555 0 -555 0 -113 -1783z"/>
<path d="M35235 24403 c-587 -49 -977 -431 -941 -925 11 -161 68 -287 190
-415 132 -140 290 -231 576 -333 227 -82 305 -125 346 -196 28 -48 33 -138 10
-183 -24 -45 -82 -89 -144 -108 -79 -25 -294 -24 -412 1 -120 25 -311 89 -405
135 -44 22 -80 39 -81 38 0 -1 -35 -136 -77 -300 l-76 -299 72 -32 c133 -61
289 -104 477 -132 161 -25 476 -25 625 0 374 62 625 217 755 468 63 120 83
208 83 368 0 230 -52 373 -189 519 -123 131 -268 215 -534 311 -339 122 -436
197 -416 324 13 77 69 133 163 163 64 20 226 19 333 -1 94 -17 258 -70 333
-107 29 -14 50 -19 56 -13 9 10 141 531 141 556 0 18 -58 44 -177 82 -214 67
-489 98 -708 79z"/>
<path d="M37780 24403 c-186 -19 -347 -65 -499 -143 -123 -64 -205 -126 -311
-237 -180 -186 -298 -419 -362 -716 -30 -138 -33 -492 -5 -632 99 -496 378
-817 841 -964 182 -58 302 -74 566 -74 256 0 408 14 610 59 136 30 330 92 336
108 4 10 -102 555 -109 563 -2 2 -24 -4 -48 -12 -264 -93 -725 -127 -954 -69
-263 66 -439 226 -462 422 l-6 42 851 0 850 0 5 28 c20 91 28 312 18 440 -53
633 -361 1044 -868 1157 -133 29 -324 41 -453 28z m191 -563 c129 -24 231
-105 293 -230 37 -76 66 -185 66 -252 l0 -38 -481 0 -482 0 7 42 c11 69 55
189 91 248 45 75 142 165 209 196 92 42 193 53 297 34z"/>
<path d="M40995 24396 c-254 -40 -478 -169 -619 -357 -41 -54 -46 -58 -50 -37
-4 21 -36 322 -36 341 0 4 -164 7 -365 7 l-365 0 5 -22 c12 -57 25 -932 25
-1745 l0 -893 415 0 414 0 3 833 3 832 22 60 c48 124 135 225 243 278 61 30
71 32 175 32 98 0 116 -3 167 -27 108 -50 184 -156 224 -313 16 -64 18 -145
21 -882 l4 -813 415 0 414 0 0 850 c0 910 -3 969 -50 1156 -103 410 -371 655
-770 704 -106 13 -193 11 -295 -4z"/>
<path d="M43615 24404 c-418 -43 -726 -227 -864 -518 -51 -107 -71 -188 -78
-316 -10 -203 47 -355 189 -505 134 -142 292 -233 578 -336 224 -80 306 -126
347 -196 22 -38 25 -53 21 -108 -4 -73 -22 -104 -84 -148 -146 -103 -567 -55
-884 100 -47 23 -86 40 -87 39 -1 -1 -35 -135 -76 -299 l-75 -298 47 -23 c202
-102 499 -160 816 -160 431 0 730 98 932 305 75 77 100 113 143 204 54 114 74
214 73 360 -4 396 -212 631 -723 815 -337 121 -434 196 -417 322 18 132 172
201 398 177 144 -15 243 -41 397 -106 46 -20 87 -32 91 -27 9 10 141 534 141
558 0 30 -252 110 -440 141 -94 15 -368 27 -445 19z"/>
<path d="M55345 24400 c-264 -24 -531 -92 -731 -186 -40 -20 -76 -39 -79 -44
-4 -7 72 -290 141 -522 5 -16 14 -13 83 21 318 160 741 207 954 107 103 -49
167 -138 182 -253 6 -47 5 -53 -12 -53 -10 0 -92 -5 -183 -10 -511 -31 -870
-153 -1098 -374 -180 -174 -255 -360 -256 -631 0 -158 14 -231 69 -351 138
-303 425 -474 794 -474 273 0 510 86 683 248 49 47 79 69 82 60 2 -7 9 -42 16
-78 6 -36 15 -89 21 -117 l10 -53 375 0 c206 0 374 3 374 8 0 4 -8 61 -16 127
-13 95 -18 282 -24 890 -8 841 -8 843 -70 1027 -122 363 -380 572 -795 643
-110 19 -384 27 -520 15z m573 -1662 c-3 -196 -4 -205 -30 -261 -33 -70 -121
-165 -186 -200 -161 -87 -356 -73 -459 35 -74 77 -100 220 -60 336 61 176 307
286 650 291 l89 1 -4 -202z"/>
</g>
</svg>
